<?xml version="1.0" standalone="no"?><!DOCTYPE svg PUBLIC "-//W3C//DTD SVG 1.1//EN" "http://www.w3.org/Graphics/SVG/1.1/DTD/svg11.dtd"><svg t="1734936614193" class="icon" viewBox="0 0 1024 1024" version="1.1" xmlns="http://www.w3.org/2000/svg" p-id="1455" xmlns:xlink="http://www.w3.org/1999/xlink" width="200" height="200"><path d="M529.52 669.584a8.032 8.032 0 0 1-5.664-2.336L271.28 414.656l-25.904-5.184a7.84 7.84 0 0 1-4.096-2.192l-50.736-50.736a24.048 24.048 0 0 1-0.144-33.792l44.912-45.616a23.92 23.92 0 0 1 17.024-7.168h0.08c6.416 0 12.432 2.496 16.976 7.024l50.56 50.56c1.12 1.104 1.872 2.528 2.192 4.096l5.184 25.904 253.088 253.104a8 8 0 0 1 0 11.312l-45.248 45.248a7.872 7.872 0 0 1-5.648 2.368zM250.88 394.256l25.904 5.184a7.84 7.84 0 0 1 4.096 2.192l248.64 248.64 33.936-33.936-249.152-249.184a7.952 7.952 0 0 1-2.192-4.096l-5.184-25.904-48.848-48.832a7.92 7.92 0 0 0-5.664-2.336h-0.032a7.984 7.984 0 0 0-5.664 2.384l-44.912 45.616a8.032 8.032 0 0 0 0.048 11.264l49.024 49.008z" fill="#263238" p-id="1456"></path><path d="M851.408 871.424l-67.888 67.888a15.984 15.984 0 0 1-22.624 0L551.6 730.016l90.512-90.512L851.408 848.8a15.984 15.984 0 0 1 0 22.624z" fill="#FFD740" p-id="1457"></path><path d="M772.224 951.984c-6.144 0-12.304-2.336-16.976-7.008L545.936 735.664a8 8 0 0 1 0-11.328l90.512-90.512a8 8 0 0 1 11.312 0l209.296 209.296a24.032 24.032 0 0 1 0 33.952l-67.872 67.872a23.84 23.84 0 0 1-16.96 7.04zM562.912 730.016L766.56 933.664a8 8 0 0 0 11.312 0l67.872-67.872a8.032 8.032 0 0 0 0-11.328L642.112 650.816l-79.2 79.2z" fill="#263238" p-id="1458"></path><path d="M653.424 628.192l-113.136 113.136a15.984 15.984 0 0 1-22.624 0l-22.624-22.624a15.984 15.984 0 0 1 0-22.624l113.136-113.136a15.984 15.984 0 0 1 22.624 0l22.624 22.624a16 16 0 0 1 0 22.624z" fill="#FFD740" p-id="1459"></path><path d="M528.976 754c-6.144 0-12.304-2.336-16.976-7.008l-22.624-22.624a24.032 24.032 0 0 1 0-33.952l113.136-113.12a24.048 24.048 0 0 1 33.936 0l22.624 22.624a24.016 24.016 0 0 1 0 33.936l-113.136 113.136a23.936 23.936 0 0 1-16.96 7.008z m90.512-167.744a8.032 8.032 0 0 0-5.664 2.336l-113.136 113.12a8.032 8.032 0 0 0 0 11.328l22.624 22.624a8 8 0 0 0 11.312 0l113.136-113.136a8 8 0 0 0 0-11.312l-22.624-22.624a7.904 7.904 0 0 0-5.648-2.336zM726.976 504.896a119.648 119.648 0 0 1-84.864-35.088c-46.784-46.784-46.784-122.928 0-169.696a119.392 119.392 0 0 1 122.816-28.896 8.016 8.016 0 0 1 3.12 13.248l-65.12 65.136 59.392 59.392 65.136-65.136a8 8 0 0 1 13.248 3.12 119.424 119.424 0 0 1-28.896 122.832 119.68 119.68 0 0 1-84.832 35.088z m-0.352-223.92a103.28 103.28 0 0 0-73.2 30.432 103.296 103.296 0 0 0-30.448 73.552c0 27.76 10.816 53.888 30.448 73.536s45.76 30.448 73.536 30.448a103.392 103.392 0 0 0 73.552-30.448 103.296 103.296 0 0 0 28.432-93.504l-60.976 60.976a8 8 0 0 1-11.312 0l-70.704-70.704a8 8 0 0 1 0-11.312l60.976-60.976a104.112 104.112 0 0 0-20.304-2z" fill="#263238" p-id="1460"></path><path d="M642.112 556.992a8 8 0 0 1-5.664-13.648l46.736-46.736a119.424 119.424 0 0 1-67.888-67.872l-91.44 91.456a8 8 0 0 1-11.312-11.312l100.64-100.656a7.984 7.984 0 1 1 13.392 3.6c4.704 17.664 13.984 33.824 26.848 46.688s28.992 22.128 46.672 26.832a7.952 7.952 0 0 1 5.664 5.664 7.936 7.936 0 0 1-2.064 7.728l-55.936 55.936a8.016 8.016 0 0 1-5.648 2.32zM1016 618.944h-32a8 8 0 0 1 0-16h32a8 8 0 0 1 0 16zM952 618.944h-160a8 8 0 0 1 0-16h160a8 8 0 0 1 0 16zM40 618.944h-32a8 8 0 0 1 0-16h32a8 8 0 0 1 0 16zM232 618.944h-160a8 8 0 0 1 0-16h160a8 8 0 0 1 0 16zM848.72 120h-64a8 8 0 0 1 0-16h64a8 8 0 0 1 0 16z" fill="#263238" p-id="1461"></path><path d="M816.72 152a8 8 0 0 1-8-8V80a8 8 0 0 1 16 0v64a8 8 0 0 1-8 8zM960.72 224h-64a8 8 0 0 1 0-16h64a8 8 0 0 1 0 16z" fill="#263238" p-id="1462"></path><path d="M928.72 256a8 8 0 0 1-8-8v-64a8 8 0 0 1 16 0v64a8 8 0 0 1-8 8zM268.752 947.088a103.744 103.744 0 0 1-73.536-30.4 103.28 103.28 0 0 1-30.464-73.536c0-27.792 10.832-53.904 30.464-73.552a104.704 104.704 0 0 1 86.176-29.616l140.656-140.64a8 8 0 0 1 11.312 11.312l-143.488 143.472a7.84 7.84 0 0 1-6.944 2.24 88.16 88.16 0 0 0-76.4 24.544 87.424 87.424 0 0 0-25.776 62.24c0 23.504 9.152 45.6 25.776 62.224a88.08 88.08 0 0 0 124.448 0 88.32 88.32 0 0 0 24.528-76.4 8 8 0 0 1 2.24-6.944l97.68-97.664a8 8 0 0 1 11.312 11.312l-94.864 94.848a104.336 104.336 0 0 1-29.6 86.176 103.632 103.632 0 0 1-73.52 30.384z" fill="#263238" p-id="1463"></path><path d="M268.88 891.168a48.016 48.016 0 0 1-34.064-14.08c-18.784-18.8-18.784-49.36 0-68.144s49.328-18.784 68.144 0a48.24 48.24 0 0 1 0 68.144 48.048 48.048 0 0 1-34.08 14.08z m0-80.304c-8.24 0-16.48 3.136-22.752 9.408a32.24 32.24 0 0 0 0 45.52 32.24 32.24 0 0 0 45.52 0 32.144 32.144 0 1 0-22.768-54.928z" fill="#263238" p-id="1464"></path><path d="M726.96 449.52a8.032 8.032 0 0 1-5.664-2.336l-56.56-56.576a8 8 0 0 1 11.312-11.312l56.56 56.576a8 8 0 0 1-5.648 13.648z" fill="#263238" p-id="1465"></path><path d="M797.664 893.584a8.032 8.032 0 0 1-5.664-2.336L611.008 710.208a8 8 0 0 1 11.312-11.312l181.008 181.024a8 8 0 0 1-5.664 13.664z" fill="#263238" p-id="1466"></path></svg>